<svg width="46" height="47" viewBox="0 0 46 47" fill="none" xmlns="http://www.w3.org/2000/svg">
<g clip-path="url(#clip0_510_4965)">
<rect y="0.528809" width="46" height="46" rx="23" fill="white"/>
<g clip-path="url(#clip1_510_4965)">
<mask id="mask0_510_4965" style="mask-type:luminance" maskUnits="userSpaceOnUse" x="0" y="0" width="46" height="47">
<path d="M46 0.528809H0V46.5288H46V0.528809Z" fill="white"/>
</mask>
<g mask="url(#mask0_510_4965)">
<path d="M46 0.528809H0V46.5288H46V0.528809Z" fill="white"/>
<path d="M46 0.537598H0V46.5376H46V0.537598Z" fill="url(#paint0_linear_510_4965)"/>
<path opacity="0.3" d="M22.234 -26.3117L-27.2036 23.126L-1.97307 48.3565L47.4646 -1.08114L22.234 -26.3117Z" fill="url(#paint1_linear_510_4965)"/>
<path opacity="0.3" d="M14.9377 -33.6081L-34.5 15.8296L-8.47847 41.8511L40.9592 -7.58653L14.9377 -33.6081Z" fill="url(#paint2_linear_510_4965)"/>
<path opacity="0.3" d="M14.9377 -33.6081L-34.5 15.8296L-14.9839 35.3457L34.4538 -14.0919L14.9377 -33.6081Z" fill="url(#paint3_linear_510_4965)"/>
</g>
</g>
<path d="M16.8518 31.4866V14.4248H23.1C24.3108 14.4248 25.3133 14.6248 26.1075 15.0246C26.9017 15.419 27.496 15.9549 27.8903 16.6325C28.2847 17.3045 28.4818 18.0627 28.4818 18.9069C28.4818 19.6178 28.3513 20.2176 28.0903 20.7063C27.8292 21.1896 27.4794 21.5783 27.0406 21.8727C26.6074 22.1615 26.1297 22.3725 25.6077 22.5059V22.6725C26.1742 22.7003 26.7268 22.8835 27.2655 23.2223C27.8098 23.5555 28.2597 24.0304 28.6152 24.6469C28.9706 25.2634 29.1483 26.0132 29.1483 26.8963C29.1483 27.7683 28.9428 28.5514 28.5318 29.2456C28.1264 29.9343 27.4988 30.4813 26.649 30.8868C25.7993 31.2867 24.7135 31.4866 23.3916 31.4866H16.8518ZM19.4261 29.2789H23.1417C24.3747 29.2789 25.2578 29.0401 25.7909 28.5624C26.3241 28.0848 26.5907 27.4877 26.5907 26.7713C26.5907 26.2325 26.4546 25.7383 26.1825 25.2884C25.9104 24.8385 25.5216 24.4803 25.0162 24.2137C24.5163 23.9471 23.922 23.8138 23.2333 23.8138H19.4261V29.2789ZM19.4261 21.8061H22.8751C23.4527 21.8061 23.972 21.695 24.433 21.4728C24.8995 21.2507 25.2689 20.9396 25.541 20.5397C25.8187 20.1343 25.9576 19.6567 25.9576 19.1068C25.9576 18.4015 25.7104 17.8099 25.2161 17.3323C24.7218 16.8547 23.9637 16.6158 22.9417 16.6158H19.4261V21.8061Z" fill="white"/>
</g>
<defs>
<linearGradient id="paint0_linear_510_4965" x1="46" y1="46.5377" x2="0" y2="0.537598" gradientUnits="userSpaceOnUse">
<stop stop-color="#6587FF"/>
<stop offset="1" stop-color="#C883FF"/>
</linearGradient>
<linearGradient id="paint1_linear_510_4965" x1="47.4647" y1="-1.08107" x2="-15.6418" y2="-20.2427" gradientUnits="userSpaceOnUse">
<stop stop-color="white" stop-opacity="0.6"/>
<stop offset="1" stop-color="white" stop-opacity="0"/>
</linearGradient>
<linearGradient id="paint2_linear_510_4965" x1="40.9592" y1="-7.58653" x2="-23.9188" y2="-26.3728" gradientUnits="userSpaceOnUse">
<stop stop-color="white" stop-opacity="0.6"/>
<stop offset="1" stop-color="white" stop-opacity="0"/>
</linearGradient>
<linearGradient id="paint3_linear_510_4965" x1="34.4538" y1="-14.0919" x2="-14.9124" y2="-34.5909" gradientUnits="userSpaceOnUse">
<stop stop-color="white" stop-opacity="0.6"/>
<stop offset="1" stop-color="white" stop-opacity="0"/>
</linearGradient>
<clipPath id="clip0_510_4965">
<rect y="0.528809" width="46" height="46" rx="23" fill="white"/>
</clipPath>
<clipPath id="clip1_510_4965">
<rect width="46" height="46" fill="white" transform="translate(0 0.528809)"/>
</clipPath>
</defs>
</svg>
