<svg width="36" height="36" viewBox="0 0 36 36" fill="none" xmlns="http://www.w3.org/2000/svg">
<g clip-path="url(#clip0_510_4979)">
<path d="M17.748 11.7908C19.375 11.7908 20.7061 10.4671 20.7061 8.84927C20.7061 7.23141 19.375 5.90771 17.748 5.90771C16.1211 5.90771 14.79 7.23141 14.79 8.84927C14.79 10.4671 16.1211 11.7908 17.748 11.7908ZM17.748 14.7324C16.1211 14.7324 14.79 16.0561 14.79 17.6739C14.79 19.2918 16.1211 20.6155 17.748 20.6155C19.375 20.6155 20.7061 19.2918 20.7061 17.6739C20.7061 16.0561 19.375 14.7324 17.748 14.7324ZM17.748 23.557C16.1211 23.557 14.79 24.8807 14.79 26.4986C14.79 28.1164 16.1211 29.4401 17.748 29.4401C19.375 29.4401 20.7061 28.1164 20.7061 26.4986C20.7061 24.8807 19.375 23.557 17.748 23.557Z" fill="#323232"/>
</g>
<defs>
<clipPath id="clip0_510_4979">
<rect width="35.4961" height="35.2986" fill="white" transform="translate(0 0.0249023)"/>
</clipPath>
</defs>
</svg>
