<svg width="36" height="36" viewBox="0 0 36 36" fill="none" xmlns="http://www.w3.org/2000/svg">
<g clip-path="url(#clip0_510_4978)">
<path d="M17.748 12.3543C19.375 12.3543 20.7061 11.0306 20.7061 9.41274C20.7061 7.79489 19.375 6.47119 17.748 6.47119C16.1211 6.47119 14.79 7.79489 14.79 9.41274C14.79 11.0306 16.1211 12.3543 17.748 12.3543ZM17.748 15.2958C16.1211 15.2958 14.79 16.6195 14.79 18.2374C14.79 19.8553 16.1211 21.179 17.748 21.179C19.375 21.179 20.7061 19.8553 20.7061 18.2374C20.7061 16.6195 19.375 15.2958 17.748 15.2958ZM17.748 24.1205C16.1211 24.1205 14.79 25.4442 14.79 27.0621C14.79 28.6799 16.1211 30.0036 17.748 30.0036C19.375 30.0036 20.7061 28.6799 20.7061 27.0621C20.7061 25.4442 19.375 24.1205 17.748 24.1205Z" fill="#323232"/>
</g>
<defs>
<clipPath id="clip0_510_4978">
<rect width="35.4961" height="35.2986" fill="white" transform="translate(0 0.588379)"/>
</clipPath>
</defs>
</svg>
