<svg width="36" height="36" viewBox="0 0 36 36" fill="none" xmlns="http://www.w3.org/2000/svg">
<g clip-path="url(#clip0_510_4980)">
<path d="M17.748 12.2283C19.375 12.2283 20.7061 10.9046 20.7061 9.28677C20.7061 7.66891 19.375 6.34521 17.748 6.34521C16.1211 6.34521 14.79 7.66891 14.79 9.28677C14.79 10.9046 16.1211 12.2283 17.748 12.2283ZM17.748 15.1699C16.1211 15.1699 14.79 16.4936 14.79 18.1114C14.79 19.7293 16.1211 21.053 17.748 21.053C19.375 21.053 20.7061 19.7293 20.7061 18.1114C20.7061 16.4936 19.375 15.1699 17.748 15.1699ZM17.748 23.9945C16.1211 23.9945 14.79 25.3182 14.79 26.9361C14.79 28.5539 16.1211 29.8776 17.748 29.8776C19.375 29.8776 20.7061 28.5539 20.7061 26.9361C20.7061 25.3182 19.375 23.9945 17.748 23.9945Z" fill="#323232"/>
</g>
<defs>
<clipPath id="clip0_510_4980">
<rect width="35.4961" height="35.2986" fill="white" transform="translate(0 0.462402)"/>
</clipPath>
</defs>
</svg>
