<svg width="36" height="37" viewBox="0 0 36 37" fill="none" xmlns="http://www.w3.org/2000/svg">
<g clip-path="url(#clip0_510_4981)">
<path d="M17.748 12.5496C19.375 12.5496 20.7061 11.2259 20.7061 9.60806C20.7061 7.9902 19.375 6.6665 17.748 6.6665C16.1211 6.6665 14.79 7.9902 14.79 9.60806C14.79 11.2259 16.1211 12.5496 17.748 12.5496ZM17.748 15.4912C16.1211 15.4912 14.79 16.8149 14.79 18.4327C14.79 20.0506 16.1211 21.3743 17.748 21.3743C19.375 21.3743 20.7061 20.0506 20.7061 18.4327C20.7061 16.8149 19.375 15.4912 17.748 15.4912ZM17.748 24.3158C16.1211 24.3158 14.79 25.6395 14.79 27.2574C14.79 28.8752 16.1211 30.1989 17.748 30.1989C19.375 30.1989 20.7061 28.8752 20.7061 27.2574C20.7061 25.6395 19.375 24.3158 17.748 24.3158Z" fill="#323232"/>
</g>
<defs>
<clipPath id="clip0_510_4981">
<rect width="35.4961" height="35.2986" fill="white" transform="translate(0 0.783691)"/>
</clipPath>
</defs>
</svg>
