<svg width="23" height="22" viewBox="0 0 23 22" fill="none" xmlns="http://www.w3.org/2000/svg">
<path d="M4.3125 21.9445V19.0275H14.5188C16.0281 19.0275 17.3398 18.5413 18.4539 17.569C19.568 16.5966 20.125 15.3812 20.125 13.9227C20.125 12.4642 19.568 11.2488 18.4539 10.2764C17.3398 9.30411 16.0281 8.81794 14.5188 8.81794H5.4625L9.2 12.6101L7.1875 14.652L0 7.35943L7.1875 0.0668945L9.2 2.1088L5.4625 5.90092H14.5188C16.8427 5.90092 18.8372 6.66664 20.5023 8.19807C22.1674 9.72951 23 11.6377 23 13.9227C23 16.2077 22.1674 18.1159 20.5023 19.6474C18.8372 21.1788 16.8427 21.9445 14.5188 21.9445H4.3125Z" fill="#414141"/>
</svg>
